<svg xmlns="http://www.w3.org/2000/svg" xmlns:xlink="http://www.w3.org/1999/xlink" viewBox="0 0 399.96 51.13"><defs><style>.cls-1,.cls-10,.cls-4,.cls-5,.cls-6,.cls-8,.cls-9{isolation:isolate;}.cls-2{fill:#f4a4a4;}.cls-3{fill:#ff9600;}.cls-12,.cls-4,.cls-9{fill:#ffd6b8;}.cls-11,.cls-4{opacity:0.5;}.cls-10,.cls-13,.cls-5,.cls-6,.cls-8,.cls-9{opacity:0.7;}.cls-5{fill:url(#linear-gradient);}.cls-6{fill:url(#linear-gradient-2);}.cls-7{opacity:0.2;}.cls-16,.cls-8{fill:#fff;}.cls-10{fill:url(#linear-gradient-3);}.cls-14{fill:url(#linear-gradient-4);}.cls-15{fill:url(#linear-gradient-5);}.cls-17{fill:url(#linear-gradient-6);}.cls-18{opacity:0.25;}.cls-19{fill:url(#linear-gradient-7);}.cls-20{fill:url(#linear-gradient-8);}.cls-21{fill:url(#linear-gradient-9);}.cls-22{fill:url(#linear-gradient-10);}.cls-23{fill:url(#linear-gradient-11);}.cls-24{fill:url(#linear-gradient-12);}.cls-25{fill:url(#linear-gradient-13);}.cls-26{fill:url(#linear-gradient-14);}</style><linearGradient id="linear-gradient" x1="38.49" y1="406.49" x2="50.69" y2="425.55" gradientTransform="translate(0 -399.79)" gradientUnits="userSpaceOnUse"><stop offset="0" stop-color="#fff" stop-opacity="0"/><stop offset="0.23" stop-color="#fdd3dd" stop-opacity="0.32"/><stop offset="0.46" stop-color="#fcabbf" stop-opacity="0.61"/><stop offset="0.65" stop-color="#fb8ea8" stop-opacity="0.82"/><stop offset="0.79" stop-color="#fa7c9a" stop-opacity="0.95"/><stop offset="0.87" stop-color="#fa7595"/></linearGradient><linearGradient id="linear-gradient-2" x1="39.75" y1="-233.23" x2="53.48" y2="-244.27" gradientTransform="matrix(1, 0, 0, -1, 0, -222.95)" gradientUnits="userSpaceOnUse"><stop offset="0" stop-color="#fff" stop-opacity="0.5"/><stop offset="1" stop-color="#fb8ea8" stop-opacity="0"/></linearGradient><linearGradient id="linear-gradient-3" x1="-2.46" y1="-238.83" x2="45.84" y2="-262.03" gradientTransform="matrix(1, 0, 0, -1, 0, -222.95)" xlink:href="#linear-gradient"/><linearGradient id="linear-gradient-4" x1="63.59" y1="406.49" x2="75.79" y2="425.55" xlink:href="#linear-gradient"/><linearGradient id="linear-gradient-5" x1="64.85" y1="-233.23" x2="78.58" y2="-244.27" xlink:href="#linear-gradient-2"/><linearGradient id="linear-gradient-6" x1="22.61" y1="-238.84" x2="70.88" y2="-262.04" gradientTransform="matrix(1, 0, 0, -1, 0, -222.95)" xlink:href="#linear-gradient"/><linearGradient id="linear-gradient-7" x1="24.64" y1="285.66" x2="24.64" y2="336.59" gradientTransform="translate(0 -276)" gradientUnits="userSpaceOnUse"><stop offset="0" stop-color="#fac5d4"/><stop offset="0.23" stop-color="#fa98a7" stop-opacity="0.32"/><stop offset="0.46" stop-color="#fa98a7" stop-opacity="0.61"/><stop offset="0.65" stop-color="#fa98a7" stop-opacity="0.82"/><stop offset="0.79" stop-color="#fa98a7" stop-opacity="0.95"/><stop offset="0.87" stop-color="#fa98a7"/></linearGradient><linearGradient id="linear-gradient-8" x1="25.12" y1="285.66" x2="25.12" y2="336.59" xlink:href="#linear-gradient-7"/><linearGradient id="linear-gradient-9" x1="41.37" y1="285.66" x2="41.37" y2="336.59" xlink:href="#linear-gradient-7"/><linearGradient id="linear-gradient-10" x1="24.32" y1="285.66" x2="24.32" y2="336.59" xlink:href="#linear-gradient-7"/><linearGradient id="linear-gradient-11" x1="49.87" y1="285.66" x2="49.87" y2="336.59" xlink:href="#linear-gradient-7"/><linearGradient id="linear-gradient-12" x1="50.36" y1="285.66" x2="50.36" y2="336.59" xlink:href="#linear-gradient-7"/><linearGradient id="linear-gradient-13" x1="66.62" y1="285.66" x2="66.62" y2="336.59" xlink:href="#linear-gradient-7"/><linearGradient id="linear-gradient-14" x1="49.6" y1="285.66" x2="49.6" y2="336.59" xlink:href="#linear-gradient-7"/></defs><title>ww-logo</title><g id="Layer_2" data-name="Layer 2"><g id="Layer_1-2" data-name="Layer 1"><g id="Layer_2-2" data-name="Layer 2-2"><g id="Layer_1-2-2" data-name="Layer 1-2-2"><g class="cls-1"><path class="cls-2" d="M99.86,20.86l3.62,12.41,3.3-11.54q.53-1.81.78-2.47a3.22,3.22,0,0,1,1-1.26,2.86,2.86,0,0,1,1.92-.6,2.9,2.9,0,0,1,1.94.6,3.43,3.43,0,0,1,1,1.3q.29.7.79,2.43l3.3,11.54,3.66-12.41q.37-1.34.59-1.94a2.58,2.58,0,0,1,.75-1.06A2.27,2.27,0,0,1,124,17.4a2.44,2.44,0,0,1,1.73.69,2.17,2.17,0,0,1,.73,1.63,8.5,8.5,0,0,1-.63,2.58l-4.54,13.31q-.59,1.69-.92,2.44a3.64,3.64,0,0,1-1,1.34,3.43,3.43,0,0,1-3.91,0,3.8,3.8,0,0,1-1.07-1.55q-.35-.92-.75-2.38L110.44,24.6l-3.07,10.83A13.29,13.29,0,0,1,106,38.84a2.71,2.71,0,0,1-2.5,1.15,3.16,3.16,0,0,1-1.56-.36,3,3,0,0,1-1.07-1,7.62,7.62,0,0,1-.75-1.57l-.51-1.43L95.16,22.3a9.42,9.42,0,0,1-.67-2.58,2.22,2.22,0,0,1,.71-1.61,2.38,2.38,0,0,1,1.75-.71,2,2,0,0,1,1.87.78A11.63,11.63,0,0,1,99.86,20.86Z"/></g><g class="cls-1"><path class="cls-2" d="M144.06,36.85a17.18,17.18,0,0,1-3.9,2.35,10.9,10.9,0,0,1-4.22.78,8,8,0,0,1-3.75-.84,6.18,6.18,0,0,1-2.49-2.29,5.94,5.94,0,0,1-.88-3.13,5.61,5.61,0,0,1,1.44-3.89,7.21,7.21,0,0,1,4-2.16l2.63-.55q2.1-.43,3.59-.78t3.25-.87a5.79,5.79,0,0,0-.89-3.23q-.78-1-3.25-1a6.76,6.76,0,0,0-3.18.59,5.18,5.18,0,0,0-1.83,1.77,18.77,18.77,0,0,1-1.08,1.56,1.77,1.77,0,0,1-1.35.38,2.37,2.37,0,0,1-1.62-.6,2,2,0,0,1-.68-1.54,4.7,4.7,0,0,1,1-2.85,7.42,7.42,0,0,1,3.24-2.28,14.58,14.58,0,0,1,5.47-.9,15.5,15.5,0,0,1,5.76.86,5.36,5.36,0,0,1,3,2.74,12,12,0,0,1,.86,5q0,2,0,3.32t0,3a11.15,11.15,0,0,0,.52,3.27,10.29,10.29,0,0,1,.52,2.19,2,2,0,0,1-.8,1.56,2.7,2.7,0,0,1-1.82.7,2.46,2.46,0,0,1-1.69-.8A11.93,11.93,0,0,1,144.06,36.85Zm-.37-8a28.29,28.29,0,0,1-3.55.95q-2.33.5-3.23.73a4.4,4.4,0,0,0-1.71.92,2.35,2.35,0,0,0-.81,1.9,2.82,2.82,0,0,0,1,2.15,3.53,3.53,0,0,0,2.5.89,6.51,6.51,0,0,0,3-.72,4.82,4.82,0,0,0,2-1.86,8.51,8.51,0,0,0,.75-4.15Z"/><path class="cls-2" d="M160.67,32v4.64a3.58,3.58,0,0,1-.79,2.53,2.65,2.65,0,0,1-2,.84,2.54,2.54,0,0,1-2-.86,3.65,3.65,0,0,1-.77-2.52V21.14q0-3.74,2.71-3.74a2.26,2.26,0,0,1,2,.88,4.83,4.83,0,0,1,.67,2.58,9.72,9.72,0,0,1,2-2.58,4.22,4.22,0,0,1,2.8-.88,7.17,7.17,0,0,1,3.4.88,2.61,2.61,0,0,1,1.65,2.32,2.21,2.21,0,0,1-.7,1.68,2.18,2.18,0,0,1-1.52.66,7,7,0,0,1-1.48-.38,6.87,6.87,0,0,0-2.06-.38,3,3,0,0,0-2,.64,4.11,4.11,0,0,0-1.2,1.9,13.29,13.29,0,0,0-.59,3Q160.67,29.47,160.67,32Z"/><path class="cls-2" d="M192.26,29.1v7.39a3.79,3.79,0,0,1-.79,2.62,2.69,2.69,0,0,1-2.1.88,2.62,2.62,0,0,1-2-.88,3.83,3.83,0,0,1-.78-2.62V27.64a28.61,28.61,0,0,0-.14-3.26,3.53,3.53,0,0,0-.77-1.9,2.47,2.47,0,0,0-2-.74q-2.73,0-3.59,1.87a13.22,13.22,0,0,0-.86,5.37v7.51a3.83,3.83,0,0,1-.78,2.61,2.62,2.62,0,0,1-2.07.89,2.66,2.66,0,0,1-2.06-.89,3.77,3.77,0,0,1-.8-2.61V20.59a3.48,3.48,0,0,1,.72-2.38,2.42,2.42,0,0,1,1.9-.81,2.58,2.58,0,0,1,1.9.76,2.85,2.85,0,0,1,.76,2.11v.53a9.66,9.66,0,0,1,3.09-2.54,8.17,8.17,0,0,1,3.66-.81,7.32,7.32,0,0,1,3.6.83,6.54,6.54,0,0,1,2.48,2.52,9.65,9.65,0,0,1,3-2.53,7.69,7.69,0,0,1,3.56-.82,8.12,8.12,0,0,1,3.93.9,5.7,5.7,0,0,1,2.46,2.56,11.76,11.76,0,0,1,.71,4.74V36.49a3.79,3.79,0,0,1-.79,2.62,2.69,2.69,0,0,1-2.1.88,2.66,2.66,0,0,1-2.07-.89,3.77,3.77,0,0,1-.8-2.61V27.15a21.35,21.35,0,0,0-.15-2.87,3.29,3.29,0,0,0-.82-1.81,2.63,2.63,0,0,0-2-.73,3.73,3.73,0,0,0-2.09.65,4.42,4.42,0,0,0-1.54,1.75A13.9,13.9,0,0,0,192.26,29.1Z"/></g><g class="cls-1"><path class="cls-2" d="M225,20.86l3.62,12.41,3.3-11.54q.53-1.81.78-2.47a3.22,3.22,0,0,1,1-1.26,2.86,2.86,0,0,1,1.92-.6,2.9,2.9,0,0,1,1.94.6,3.42,3.42,0,0,1,1,1.3q.28.7.79,2.43l3.3,11.54,3.66-12.41q.37-1.34.59-1.94a2.59,2.59,0,0,1,.75-1.06,2.26,2.26,0,0,1,1.53-.46,2.44,2.44,0,0,1,1.73.69,2.17,2.17,0,0,1,.73,1.63,8.48,8.48,0,0,1-.63,2.58l-4.54,13.31q-.59,1.69-.92,2.44a3.65,3.65,0,0,1-1,1.34,3.43,3.43,0,0,1-3.91,0,3.8,3.8,0,0,1-1.07-1.55q-.35-.92-.75-2.38L235.53,24.6l-3.07,10.83a13.29,13.29,0,0,1-1.32,3.41,2.71,2.71,0,0,1-2.5,1.15,3.17,3.17,0,0,1-1.56-.36,3,3,0,0,1-1.07-1,7.62,7.62,0,0,1-.75-1.57l-.51-1.43-4.5-13.31a9.43,9.43,0,0,1-.67-2.58,2.22,2.22,0,0,1,.71-1.61A2.38,2.38,0,0,1,222,17.4a2,2,0,0,1,1.87.78A11.62,11.62,0,0,1,225,20.86Z"/></g><g class="cls-1"><path class="cls-2" d="M270.64,30.06H259.77a7.38,7.38,0,0,0,.76,3.34,5.1,5.1,0,0,0,4.69,2.91,6.68,6.68,0,0,0,1.82-.23,5.91,5.91,0,0,0,1.6-.73,12.24,12.24,0,0,0,1.42-1.07q.65-.57,1.69-1.55a1.82,1.82,0,0,1,1.22-.37,2,2,0,0,1,1.38.47,1.67,1.67,0,0,1,.53,1.32,3.62,3.62,0,0,1-.59,1.76,7,7,0,0,1-1.78,1.93,10.15,10.15,0,0,1-3,1.54,12.91,12.91,0,0,1-4.14.61q-5.35,0-8.32-3.05a11.36,11.36,0,0,1-3-8.28,13.82,13.82,0,0,1,.73-4.57A10.07,10.07,0,0,1,257,20.47a9.26,9.26,0,0,1,3.46-2.31,12.43,12.43,0,0,1,4.56-.8,10.81,10.81,0,0,1,5.59,1.37,9,9,0,0,1,3.49,3.55,9.34,9.34,0,0,1,1.16,4.44q0,2.1-1.2,2.72A7.47,7.47,0,0,1,270.64,30.06ZM259.77,26.9h10.07a6.76,6.76,0,0,0-1.54-4.26,4.6,4.6,0,0,0-3.51-1.41,4.45,4.45,0,0,0-3.41,1.43A7.14,7.14,0,0,0,259.77,26.9Z"/><path class="cls-2" d="M280.28,36.61V12.52A3.75,3.75,0,0,1,281,10a2.52,2.52,0,0,1,2-.85,2.63,2.63,0,0,1,2,.84,3.65,3.65,0,0,1,.77,2.53V36.61a3.61,3.61,0,0,1-.78,2.53,2.64,2.64,0,0,1-2,.84,2.51,2.51,0,0,1-2-.88A3.69,3.69,0,0,1,280.28,36.61Z"/><path class="cls-2" d="M311.87,33.11a4.79,4.79,0,0,1-.62,2.22,7.58,7.58,0,0,1-1.89,2.25,9.75,9.75,0,0,1-3.2,1.72,13.59,13.59,0,0,1-4.36.65q-5.15,0-8-3a11.12,11.12,0,0,1-2.89-8,13.25,13.25,0,0,1,1.32-6A9.5,9.5,0,0,1,296,18.79,13,13,0,0,1,306,18,10.37,10.37,0,0,1,309,19.62a7.82,7.82,0,0,1,1.91,2.13,4.22,4.22,0,0,1,.66,2.11,2.22,2.22,0,0,1-.74,1.69,2.55,2.55,0,0,1-1.8.69,1.81,1.81,0,0,1-1.15-.36,5.63,5.63,0,0,1-1-1.15,8.44,8.44,0,0,0-2.13-2.32,5.23,5.23,0,0,0-6.79,1.15,8.32,8.32,0,0,0-1.51,5.26,10.16,10.16,0,0,0,.39,2.88,6.53,6.53,0,0,0,1.12,2.24,4.77,4.77,0,0,0,1.77,1.4,5.37,5.37,0,0,0,2.28.48,5.13,5.13,0,0,0,2.86-.77A6.78,6.78,0,0,0,307,32.68a5.45,5.45,0,0,1,1.1-1.47,2.08,2.08,0,0,1,1.44-.53,2.14,2.14,0,0,1,1.69.77A2.48,2.48,0,0,1,311.87,33.11Z"/><path class="cls-2" d="M337.88,28.69a13.13,13.13,0,0,1-.77,4.58,10.11,10.11,0,0,1-2.24,3.6,9.89,9.89,0,0,1-3.5,2.31,12.37,12.37,0,0,1-4.58.8,12,12,0,0,1-4.54-.81,10,10,0,0,1-5.73-5.91,13.11,13.11,0,0,1-.76-4.57,13.26,13.26,0,0,1,.77-4.62,10.06,10.06,0,0,1,2.22-3.58,9.77,9.77,0,0,1,3.5-2.29,13.24,13.24,0,0,1,9.12,0,9.84,9.84,0,0,1,5.75,5.9A13.17,13.17,0,0,1,337.88,28.69Zm-5.58,0a8.34,8.34,0,0,0-1.5-5.29,4.86,4.86,0,0,0-4-1.89,5,5,0,0,0-2.87.84A5.35,5.35,0,0,0,322,24.85a10.12,10.12,0,0,0-.67,3.85A10.06,10.06,0,0,0,322,32.5,5.43,5.43,0,0,0,323.89,35a4.91,4.91,0,0,0,2.9.87,4.85,4.85,0,0,0,4-1.9A8.31,8.31,0,0,0,332.3,28.69Z"/><path class="cls-2" d="M361.11,29.1v7.39a3.8,3.8,0,0,1-.79,2.62,2.7,2.7,0,0,1-2.1.88,2.62,2.62,0,0,1-2-.88,3.83,3.83,0,0,1-.78-2.62V27.64a28.46,28.46,0,0,0-.14-3.26,3.53,3.53,0,0,0-.77-1.9,2.48,2.48,0,0,0-2-.74q-2.73,0-3.59,1.87A13.21,13.21,0,0,0,348,29v7.51a3.84,3.84,0,0,1-.78,2.61,2.62,2.62,0,0,1-2.07.89,2.66,2.66,0,0,1-2.07-.89,3.77,3.77,0,0,1-.8-2.61V20.59a3.48,3.48,0,0,1,.72-2.38,2.42,2.42,0,0,1,1.9-.81,2.58,2.58,0,0,1,1.9.76,2.85,2.85,0,0,1,.76,2.11v.53a9.67,9.67,0,0,1,3.09-2.54,8.16,8.16,0,0,1,3.66-.81,7.32,7.32,0,0,1,3.6.83,6.53,6.53,0,0,1,2.48,2.52,9.65,9.65,0,0,1,3-2.53,7.69,7.69,0,0,1,3.56-.82,8.11,8.11,0,0,1,3.93.9,5.71,5.71,0,0,1,2.46,2.56,11.76,11.76,0,0,1,.71,4.74V36.49a3.79,3.79,0,0,1-.79,2.62,2.69,2.69,0,0,1-2.1.88,2.66,2.66,0,0,1-2.07-.89,3.77,3.77,0,0,1-.8-2.61V27.15a21.47,21.47,0,0,0-.15-2.87,3.3,3.3,0,0,0-.82-1.81,2.63,2.63,0,0,0-2-.73,3.73,3.73,0,0,0-2.09.65,4.42,4.42,0,0,0-1.54,1.75A13.88,13.88,0,0,0,361.11,29.1Z"/><path class="cls-2" d="M395.39,30.06H384.52a7.38,7.38,0,0,0,.76,3.34A5.1,5.1,0,0,0,390,36.3a6.68,6.68,0,0,0,1.82-.23,5.91,5.91,0,0,0,1.6-.73,12.24,12.24,0,0,0,1.42-1.07q.65-.57,1.69-1.55a1.82,1.82,0,0,1,1.22-.37,2,2,0,0,1,1.38.47,1.67,1.67,0,0,1,.53,1.32,3.62,3.62,0,0,1-.59,1.76,7,7,0,0,1-1.78,1.93,10.15,10.15,0,0,1-3,1.54,12.91,12.91,0,0,1-4.14.61q-5.35,0-8.32-3.05a11.36,11.36,0,0,1-3-8.28,13.82,13.82,0,0,1,.73-4.57,10.07,10.07,0,0,1,2.14-3.61,9.26,9.26,0,0,1,3.46-2.31,12.43,12.43,0,0,1,4.56-.8,10.81,10.81,0,0,1,5.59,1.37,9,9,0,0,1,3.49,3.55A9.34,9.34,0,0,1,400,26.72q0,2.1-1.2,2.72A7.47,7.47,0,0,1,395.39,30.06ZM384.52,26.9h10.07a6.76,6.76,0,0,0-1.54-4.26,4.6,4.6,0,0,0-3.51-1.41,4.45,4.45,0,0,0-3.41,1.43A7.14,7.14,0,0,0,384.52,26.9Z"/></g></g></g><g id="Layer_2-3" data-name="Layer 2-3"><g id="Layer_1-2-3" data-name="Layer 1-2-3"><path class="cls-3" d="M29,19.64A7.55,7.55,0,0,1,24.37,17c6.34,8.34,15.93,18,24.26,9.7L57.13,12C61.76,4.17,52-5.88,43.59,4.31c-4.84,5.83-9.79,15.33-14.42,15.33Z"/><path class="cls-4" d="M29,19.64A7.55,7.55,0,0,1,24.37,17c6.34,8.34,15.93,18,24.26,9.7L57.13,12C61.76,4.17,52-5.88,43.59,4.31c-4.84,5.83-9.79,15.33-14.42,15.33Z"/><path class="cls-5" d="M29,19.64A7.55,7.55,0,0,1,24.37,17c6.34,8.34,15.93,18,24.26,9.7L57.13,12C61.76,4.17,52-5.88,43.59,4.31c-4.84,5.83-9.79,15.33-14.42,15.33Z"/><path class="cls-6" d="M29,19.64A7.55,7.55,0,0,1,24.37,17c6.34,8.34,15.93,18,24.26,9.7L57.13,12C61.76,4.17,52-5.88,43.59,4.31c-4.84,5.83-9.79,15.33-14.42,15.33Z"/><g class="cls-7"><path class="cls-8" d="M24.74,17.39,24.37,17l.44.58Z"/></g><g class="cls-7"><path class="cls-8" d="M25.18,17.83a7.52,7.52,0,0,1-.81-.83l1.41,1.81Z"/></g><path class="cls-3" d="M47.06,29.55,36.87,47a8.38,8.38,0,0,1-7.8,4.07A8.38,8.38,0,0,1,21.27,47L11.17,29.55,1.19,12C-3.44,4.17,6.31-5.88,14.74,4.31c3.29,4,6.62,9.59,9.89,12.85L24.44,17c6.34,8.34,15.88,18,24.22,9.7Z"/><path class="cls-9" d="M47.06,29.55,36.87,47a8.38,8.38,0,0,1-7.8,4.07A8.38,8.38,0,0,1,21.27,47L11.17,29.55,1.19,12C-3.44,4.17,6.31-5.88,14.74,4.31c3.29,4,6.62,9.59,9.89,12.85L24.44,17c6.34,8.34,15.88,18,24.22,9.7Z"/><path class="cls-10" d="M47.06,29.55,36.87,47a8.38,8.38,0,0,1-7.8,4.07A8.38,8.38,0,0,1,21.27,47L11.17,29.55,1.19,12C-3.44,4.17,6.31-5.88,14.74,4.31c3.29,4,6.62,9.59,9.89,12.85L24.44,17c6.34,8.34,15.88,18,24.22,9.7Z"/><path class="cls-3" d="M54.1,19.64A7.55,7.55,0,0,1,49.47,17c6.34,8.34,15.93,18,24.26,9.7L82.23,12c4.63-7.87-5.12-17.92-13.54-7.73-4.84,5.83-9.79,15.3-14.42,15.3Z"/><g class="cls-11"><path class="cls-12" d="M54.1,19.64A7.55,7.55,0,0,1,49.47,17c6.34,8.34,15.93,18,24.26,9.7L82.23,12c4.63-7.87-5.12-17.92-13.54-7.73-4.84,5.83-9.79,15.3-14.42,15.3Z"/></g><g class="cls-13"><path class="cls-14" d="M54.1,19.64A7.55,7.55,0,0,1,49.47,17c6.34,8.34,15.93,18,24.26,9.7L82.23,12c4.63-7.87-5.12-17.92-13.54-7.73-4.84,5.83-9.79,15.3-14.42,15.3Z"/></g><g class="cls-13"><path class="cls-15" d="M54.1,19.64A7.55,7.55,0,0,1,49.47,17c6.34,8.34,15.93,18,24.26,9.7L82.23,12c4.63-7.87-5.12-17.92-13.54-7.73-4.84,5.83-9.79,15.3-14.42,15.3Z"/></g><g class="cls-7"><g class="cls-13"><path class="cls-16" d="M49.84,17.39,49.47,17l.44.58Z"/></g></g><g class="cls-7"><g class="cls-13"><path class="cls-16" d="M50.28,17.83a7.52,7.52,0,0,1-.81-.83l1.41,1.81Z"/></g></g><path class="cls-3" d="M72.16,29.55,62,47a8.38,8.38,0,0,1-7.8,4.07A8.38,8.38,0,0,1,46.3,47L36.2,29.55,26.27,12C21.64,4.17,31.39-5.88,39.81,4.31c3.29,4,6.64,9.59,9.91,12.85L49.54,17c6.34,8.34,15.88,18,24.22,9.7Z"/><g class="cls-13"><path class="cls-12" d="M72.16,29.55,62,47a8.38,8.38,0,0,1-7.8,4.07A8.38,8.38,0,0,1,46.3,47L36.2,29.55,26.27,12C21.64,4.17,31.39-5.88,39.81,4.31c3.29,4,6.64,9.59,9.91,12.85L49.54,17c6.34,8.34,15.88,18,24.22,9.7Z"/></g><g class="cls-13"><path class="cls-17" d="M72.16,29.55,62,47a8.38,8.38,0,0,1-7.8,4.07A8.38,8.38,0,0,1,46.3,47L36.2,29.55,26.27,12C21.64,4.17,31.39-5.88,39.81,4.31c3.29,4,6.64,9.59,9.91,12.85L49.54,17c6.34,8.34,15.88,18,24.22,9.7Z"/></g><g class="cls-18"><g class="cls-7"><g class="cls-13"><path class="cls-19" d="M24.79,17.39,24.42,17l.44.58Z"/></g></g><g class="cls-7"><g class="cls-13"><path class="cls-20" d="M25.23,17.85a7.52,7.52,0,0,1-.81-.83l1.41,1.81Z"/></g></g><path class="cls-21" d="M29,19.66A7.55,7.55,0,0,1,24.42,17c6.34,8.31,15.93,18,24.26,9.7L57.13,12C61.76,4.17,52-5.88,43.59,4.31c-4.84,5.81-9.79,15.3-14.42,15.3Z"/><path class="cls-22" d="M47.08,29.55,36.9,47a8.36,8.36,0,0,1-7.8,4.07A8.36,8.36,0,0,1,21.29,47L11.2,29.55,1.22,12C-3.41,4.17,6.31-5.88,14.76,4.31c3.29,4,6.64,9.59,9.91,12.83L24.49,17c6.34,8.31,15.88,18,24.13,9.68Z"/><g class="cls-7"><g class="cls-13"><path class="cls-23" d="M50,17.39,49.65,17l.44.58Z"/></g></g><g class="cls-7"><g class="cls-13"><path class="cls-24" d="M50.46,17.85a7.52,7.52,0,0,1-.81-.83l1.41,1.81Z"/></g></g><path class="cls-25" d="M54.28,19.66A7.55,7.55,0,0,1,49.65,17c6.27,8.31,16,17.92,24.29,9.7L82.39,12C87,4.17,77.3-5.88,68.85,4.31c-4.84,5.83-9.79,15.3-14.42,15.3Z"/><path class="cls-26" d="M72.32,29.55,62.13,47a8.36,8.36,0,0,1-7.8,4.07A8.36,8.36,0,0,1,46.6,47L36.5,29.52,26.45,12C21.82,4.17,31.55-5.88,40,4.31c3.29,4,6.6,9.59,9.91,12.83L49.72,17c6.34,8.31,15.88,18,24.22,9.68Z"/></g></g></g></g></g></svg>