<svg xmlns="http://www.w3.org/2000/svg" xmlns:xlink="http://www.w3.org/1999/xlink" viewBox="0 0 257.89 157.74"><defs><style>.cls-1{fill:#ff9600;}.cls-10,.cls-2,.cls-7{fill:#ffd6b8;}.cls-2,.cls-9{opacity:0.5;}.cls-2,.cls-3,.cls-4,.cls-6,.cls-7,.cls-8{isolation:isolate;}.cls-11,.cls-3,.cls-4,.cls-6,.cls-7,.cls-8{opacity:0.7;}.cls-3{fill:url(#linear-gradient);}.cls-4{fill:url(#linear-gradient-2);}.cls-5{opacity:0.2;}.cls-14,.cls-6{fill:#fff;}.cls-8{fill:url(#linear-gradient-3);}.cls-12{fill:url(#linear-gradient-4);}.cls-13{fill:url(#linear-gradient-5);}.cls-15{fill:url(#linear-gradient-6);}.cls-16{opacity:0.25;}.cls-17{fill:url(#linear-gradient-7);}.cls-18{fill:url(#linear-gradient-8);}.cls-19{fill:url(#linear-gradient-9);}.cls-20{fill:url(#linear-gradient-10);}.cls-21{fill:url(#linear-gradient-11);}.cls-22{fill:url(#linear-gradient-12);}.cls-23{fill:url(#linear-gradient-13);}.cls-24{fill:url(#linear-gradient-14);}</style><linearGradient id="linear-gradient" x1="118.75" y1="15.19" x2="156.39" y2="-43.59" gradientTransform="matrix(1, 0, 0, -1, 0, 35.87)" gradientUnits="userSpaceOnUse"><stop offset="0" stop-color="#fff" stop-opacity="0"/><stop offset="0.23" stop-color="#fdd3dd" stop-opacity="0.32"/><stop offset="0.46" stop-color="#fcabbf" stop-opacity="0.61"/><stop offset="0.65" stop-color="#fb8ea8" stop-opacity="0.82"/><stop offset="0.79" stop-color="#fa7c9a" stop-opacity="0.95"/><stop offset="0.87" stop-color="#fa7595"/></linearGradient><linearGradient id="linear-gradient-2" x1="122.64" y1="307.71" x2="165" y2="341.78" gradientTransform="translate(0 -276)" gradientUnits="userSpaceOnUse"><stop offset="0" stop-color="#fff" stop-opacity="0.5"/><stop offset="1" stop-color="#fb8ea8" stop-opacity="0"/></linearGradient><linearGradient id="linear-gradient-3" x1="-7.59" y1="325" x2="141.42" y2="396.57" gradientTransform="translate(0 -276)" xlink:href="#linear-gradient"/><linearGradient id="linear-gradient-4" x1="196.18" y1="15.19" x2="233.83" y2="-43.59" xlink:href="#linear-gradient"/><linearGradient id="linear-gradient-5" x1="200.07" y1="307.71" x2="242.43" y2="341.78" xlink:href="#linear-gradient-2"/><linearGradient id="linear-gradient-6" x1="69.75" y1="325.03" x2="218.76" y2="396.6" gradientTransform="translate(0 -276)" xlink:href="#linear-gradient"/><linearGradient id="linear-gradient-7" x1="76.01" y1="129.87" x2="76.01" y2="-27.28" gradientTransform="matrix(1, 0, 0, -1, 0, 159.66)" gradientUnits="userSpaceOnUse"><stop offset="0" stop-color="#fac5d4"/><stop offset="0.23" stop-color="#fa98a7" stop-opacity="0.32"/><stop offset="0.46" stop-color="#fa98a7" stop-opacity="0.61"/><stop offset="0.65" stop-color="#fa98a7" stop-opacity="0.82"/><stop offset="0.79" stop-color="#fa98a7" stop-opacity="0.95"/><stop offset="0.87" stop-color="#fa98a7"/></linearGradient><linearGradient id="linear-gradient-8" x1="77.51" y1="129.87" x2="77.51" y2="-27.28" xlink:href="#linear-gradient-7"/><linearGradient id="linear-gradient-9" x1="127.64" y1="129.87" x2="127.64" y2="-27.28" xlink:href="#linear-gradient-7"/><linearGradient id="linear-gradient-10" x1="75.02" y1="129.87" x2="75.02" y2="-27.28" xlink:href="#linear-gradient-7"/><linearGradient id="linear-gradient-11" x1="153.87" y1="129.87" x2="153.87" y2="-27.28" xlink:href="#linear-gradient-7"/><linearGradient id="linear-gradient-12" x1="155.37" y1="129.87" x2="155.37" y2="-27.28" xlink:href="#linear-gradient-7"/><linearGradient id="linear-gradient-13" x1="205.54" y1="129.87" x2="205.54" y2="-27.28" xlink:href="#linear-gradient-7"/><linearGradient id="linear-gradient-14" x1="153.03" y1="129.87" x2="153.03" y2="-27.28" xlink:href="#linear-gradient-7"/></defs><title>logo-symbol_1</title><g id="Layer_2" data-name="Layer 2"><g id="Layer_1-2" data-name="Layer 1"><g id="Layer_2-2" data-name="Layer 2"><g id="Layer_1-2-2" data-name="Layer 1-2"><path class="cls-1" d="M89.48,60.59a23.29,23.29,0,0,1-14.29-8.21C94.76,78.09,124.33,108,150,82.3l26.22-45.15c14.29-24.29-15.79-55.29-41.79-23.86-14.93,18-30.22,47.29-44.5,47.29Z"/><path class="cls-2" d="M89.48,60.59a23.29,23.29,0,0,1-14.29-8.21C94.76,78.09,124.33,108,150,82.3l26.22-45.15c14.29-24.29-15.79-55.29-41.79-23.86-14.93,18-30.22,47.29-44.5,47.29Z"/><path class="cls-3" d="M89.48,60.59a23.29,23.29,0,0,1-14.29-8.21C94.76,78.09,124.33,108,150,82.3l26.22-45.15c14.29-24.29-15.79-55.29-41.79-23.86-14.93,18-30.22,47.29-44.5,47.29Z"/><path class="cls-4" d="M89.48,60.59a23.29,23.29,0,0,1-14.29-8.21C94.76,78.09,124.33,108,150,82.3l26.22-45.15c14.29-24.29-15.79-55.29-41.79-23.86-14.93,18-30.22,47.29-44.5,47.29Z"/><g class="cls-5"><path class="cls-6" d="M76.33,53.66l-1.14-1.29,1.36,1.79Z"/></g><g class="cls-5"><path class="cls-6" d="M77.69,55a23.22,23.22,0,0,1-2.5-2.57L79.55,58Z"/></g><path class="cls-1" d="M145.19,91.16l-31.43,53.93a25.86,25.86,0,0,1-24.07,12.57,25.86,25.86,0,0,1-24.07-12.57L34.47,91.16l-30.79-54C-10.6,12.87,19.47-18.13,45.47,13.3,55.62,25.58,65.9,42.87,76,52.94l-.57-.57c19.57,25.72,49,55.57,74.72,29.93Z"/><path class="cls-7" d="M145.19,91.16l-31.43,53.93a25.86,25.86,0,0,1-24.07,12.57,25.86,25.86,0,0,1-24.07-12.57L34.47,91.16l-30.79-54C-10.6,12.87,19.47-18.13,45.47,13.3,55.62,25.58,65.9,42.87,76,52.94l-.57-.57c19.57,25.72,49,55.57,74.72,29.93Z"/><path class="cls-8" d="M145.19,91.16l-31.43,53.93a25.86,25.86,0,0,1-24.07,12.57,25.86,25.86,0,0,1-24.07-12.57L34.47,91.16l-30.79-54C-10.6,12.87,19.47-18.13,45.47,13.3,55.62,25.58,65.9,42.87,76,52.94l-.57-.57c19.57,25.72,49,55.57,74.72,29.93Z"/><path class="cls-1" d="M166.91,60.59a23.29,23.29,0,0,1-14.29-8.21C172.19,78.09,201.77,108,227.48,82.3L253.7,37.16C268,12.87,237.91-18.13,211.91,13.3c-14.93,18-30.22,47.22-44.5,47.22Z"/><g class="cls-9"><path class="cls-10" d="M166.91,60.59a23.29,23.29,0,0,1-14.29-8.21C172.19,78.09,201.77,108,227.48,82.3L253.7,37.16C268,12.87,237.91-18.13,211.91,13.3c-14.93,18-30.22,47.22-44.5,47.22Z"/></g><g class="cls-11"><path class="cls-12" d="M166.91,60.59a23.29,23.29,0,0,1-14.29-8.21C172.19,78.09,201.77,108,227.48,82.3L253.7,37.16C268,12.87,237.91-18.13,211.91,13.3c-14.93,18-30.22,47.22-44.5,47.22Z"/></g><g class="cls-11"><path class="cls-13" d="M166.91,60.59a23.29,23.29,0,0,1-14.29-8.21C172.19,78.09,201.77,108,227.48,82.3L253.7,37.16C268,12.87,237.91-18.13,211.91,13.3c-14.93,18-30.22,47.22-44.5,47.22Z"/></g><g class="cls-5"><g class="cls-11"><path class="cls-14" d="M153.76,53.66l-1.14-1.29L154,54.16Z"/></g></g><g class="cls-5"><g class="cls-11"><path class="cls-14" d="M155.12,55a23.21,23.21,0,0,1-2.5-2.57L157,58Z"/></g></g><path class="cls-1" d="M222.62,91.16l-31.43,53.93a25.86,25.86,0,0,1-24.07,12.57,25.86,25.86,0,0,1-24.29-12.57L111.69,91.16,81,37.16C66.76,12.87,96.83-18.13,122.83,13.3c10.14,12.29,20.5,29.57,30.57,39.64l-.57-.57c19.57,25.72,49,55.57,74.72,29.93Z"/><g class="cls-11"><path class="cls-10" d="M222.62,91.16l-31.43,53.93a25.86,25.86,0,0,1-24.07,12.57,25.86,25.86,0,0,1-24.29-12.57L111.69,91.16,81,37.16C66.76,12.87,96.83-18.13,122.83,13.3c10.14,12.29,20.5,29.57,30.57,39.64l-.57-.57c19.57,25.72,49,55.57,74.72,29.93Z"/></g><g class="cls-11"><path class="cls-15" d="M222.62,91.16l-31.43,53.93a25.86,25.86,0,0,1-24.07,12.57,25.86,25.86,0,0,1-24.29-12.57L111.69,91.16,81,37.16C66.76,12.87,96.83-18.13,122.83,13.3c10.14,12.29,20.5,29.57,30.57,39.64l-.57-.57c19.57,25.72,49,55.57,74.72,29.93Z"/></g><g class="cls-16"><g class="cls-5"><g class="cls-11"><path class="cls-17" d="M76.47,53.66l-1.14-1.29,1.36,1.79Z"/></g></g><g class="cls-5"><g class="cls-11"><path class="cls-18" d="M77.83,55.09a23.22,23.22,0,0,1-2.5-2.57l4.36,5.57Z"/></g></g><path class="cls-19" d="M89.62,60.66a23.29,23.29,0,0,1-14.29-8.21c19.57,25.64,49.15,55.65,74.86,29.93l26.07-45.22c14.29-24.29-15.72-55.29-41.79-23.86C119.55,31.23,104.26,60.51,90,60.51Z"/><path class="cls-20" d="M145.26,91.16l-31.43,53.93a25.79,25.79,0,0,1-24.07,12.57,25.79,25.79,0,0,1-24.07-12.57L34.54,91.16l-30.79-54C-10.53,12.87,19.47-18.13,45.54,13.3,55.69,25.58,66,42.87,76.12,52.87l-.57-.57c19.57,25.64,49,55.57,74.43,29.86Z"/><g class="cls-5"><g class="cls-11"><path class="cls-21" d="M154.34,53.66l-1.14-1.29,1.36,1.79Z"/></g></g><g class="cls-5"><g class="cls-11"><path class="cls-22" d="M155.69,55.09a23.21,23.21,0,0,1-2.5-2.57l4.36,5.57Z"/></g></g><path class="cls-23" d="M167.48,60.66a23.29,23.29,0,0,1-14.29-8.21c19.36,25.64,49.22,55.29,74.93,29.93L254.2,37.16c14.29-24.29-15.72-55.29-41.79-23.86-14.93,18-30.22,47.22-44.5,47.22Z"/><path class="cls-24" d="M223.12,91.16l-31.43,53.93a25.79,25.79,0,0,1-24.07,12.57A25.79,25.79,0,0,1,143.76,145L112.62,91.09l-31-53.93C67.33,12.87,97.33-18.13,123.41,13.3,133.55,25.58,143.76,42.87,154,52.87l-.57-.57c19.57,25.64,49,55.57,74.72,29.86Z"/></g></g></g></g></g></svg>